<?xml version="1.0" encoding="UTF-8" standalone="no"?>
<svg
   width="16"
   height="16"
   viewBox="0 0 16 16"
   fill="none"
   version="1.1"
   id="svg4"
   sodipodi:docname="org.gnome.SystemMonitor-symbolic.svg"
   inkscape:version="1.3.2 (091e20ef0f, 2023-11-25)"
   xmlns:inkscape="http://www.inkscape.org/namespaces/inkscape"
   xmlns:sodipodi="http://sodipodi.sourceforge.net/DTD/sodipodi-0.dtd"
   xmlns="http://www.w3.org/2000/svg"
   xmlns:svg="http://www.w3.org/2000/svg">
  <sodipodi:namedview
     id="namedview4"
     pagecolor="#505050"
     bordercolor="#ffffff"
     borderopacity="1"
     inkscape:showpageshadow="0"
     inkscape:pageopacity="0"
     inkscape:pagecheckerboard="1"
     inkscape:deskcolor="#505050"
     inkscape:zoom="25.46875"
     inkscape:cx="7.5386503"
     inkscape:cy="6.7730061"
     inkscape:window-width="948"
     inkscape:window-height="995"
     inkscape:window-x="26"
     inkscape:window-y="23"
     inkscape:window-maximized="0"
     inkscape:current-layer="svg4" />
  <g
     clip-path="url(#clip0_132_2)"
     id="g4"
     transform="matrix(1,0,0,1.0746961,0,-0.66580083)">
    <path
       d="m 7.99428,1.00002 c 2.04922,0 4.09852,0.78 5.65672,2.338 3.1164,3.116 3.1164,8.19698 0,11.31298 -0.0923,0.0955 -0.2026,0.1717 -0.3246,0.2241 -0.1221,0.0524 -0.2533,0.08 -0.3861,0.0812 -0.1328,0.0011 -0.2645,-0.0242 -0.3874,-0.0745 -0.1229,-0.0502 -0.2346,-0.1245 -0.3285,-0.2184 -0.0939,-0.0939 -0.1682,-0.2055 -0.2184,-0.3284 -0.0503,-0.1229 -0.0756,-0.2546 -0.0745,-0.3874 0.0012,-0.1328 0.0288,-0.264 0.0812,-0.386 0.0524,-0.122 0.1286,-0.2323 0.2241,-0.3246 0.5591,-0.5561 1.0028,-1.2171 1.3055,-1.9452 0.3028,-0.7281 0.4586,-1.50879 0.4586,-2.29729 0,-0.78849 -0.1558,-1.56921 -0.4586,-2.29728 C 13.2396,5.96916 12.7959,5.30809 12.2368,4.75202 11.6807,4.19299 11.0195,3.74938 10.2914,3.44668 9.56319,3.14397 8.78237,2.98814 7.99378,2.98814 7.20519,2.98814 6.42437,3.14397 5.6962,3.44668 4.96804,3.74938 4.30689,4.19299 3.75074,4.75202 3.19165,5.30809 2.74799,5.96916 2.44524,6.69723 2.1425,7.4253 1.98665,8.20602 1.98665,8.99451 c 0,0.7885 0.15585,1.56919 0.45859,2.29729 0.30275,0.7281 0.74641,1.3891 1.3055,1.9452 0.09553,0.0923 0.17172,0.2026 0.22413,0.3246 0.05242,0.122 0.08001,0.2532 0.08116,0.386 0.00116,0.1328 -0.02415,0.2645 -0.07444,0.3874 -0.05028,0.1229 -0.12455,0.2345 -0.21845,0.3284 -0.0939,0.0939 -0.20557,0.1682 -0.32848,0.2184 C 3.31175,14.9321 3.18005,14.9574 3.04725,14.9563 2.91446,14.9551 2.78322,14.9275 2.6612,14.8751 2.53918,14.8227 2.42882,14.7465 2.33657,14.651 -0.779825,11.535 -0.779825,6.45402 2.33657,3.33802 3.07915,2.59495 3.96123,2.00589 4.93215,1.60466 5.90307,1.20344 6.9437,0.997956 7.99428,1.00002 Z"
       fill="#ffffff"
       id="path1" />
    <path
       d="m 5.99364,8.99414 c 0,0.53043 0.21074,1.03916 0.58586,1.41426 0.37512,0.375 0.88389,0.5857 1.41439,0.5857 0.5305,0 1.03927,-0.2107 1.41439,-0.5857 C 9.7834,10.0333 9.99414,9.52457 9.99414,8.99414 9.99414,8.46371 9.7834,7.955 9.40828,7.57993 9.03316,7.20485 8.52439,6.99414 7.99389,6.99414 7.46339,6.99414 6.95462,7.20485 6.5795,7.57993 6.20438,7.955 5.99364,8.46371 5.99364,8.99414 Z"
       fill="#ffffff"
       id="path2" />
    <path
       fill-rule="evenodd"
       clip-rule="evenodd"
       d="m 11.9994,4.23714 c 0.1496,-5e-4 0.2959,0.04376 0.4202,0.12708 0.1243,0.08331 0.2208,0.20189 0.2771,0.34047 0.0564,0.13859 0.07,0.29086 0.0391,0.43724 -0.0309,0.14638 -0.1048,0.28019 -0.2124,0.38421 l -3.00034,3 C 9.38208,8.66724 9.19082,8.74656 8.99135,8.74665 8.79188,8.74674 8.60054,8.6676 8.45943,8.52664 8.31831,8.38568 8.23898,8.19444 8.23889,7.99499 8.2388,7.79555 8.31794,7.60424 8.45893,7.46314 l 3.00037,-3 c 0.0703,-0.07195 0.1543,-0.12903 0.2471,-0.16786 0.0928,-0.03882 0.1924,-0.0586 0.293,-0.05814 z m -3.50747,-2.243 v 2 H 7.4918 v -2 z"
       fill="#ffffff"
       id="path3" />
    <path
       fill-rule="evenodd"
       clip-rule="evenodd"
       d="m 12.5888,3.69238 0.7071,0.707 -1.4142,1.414 -0.707,-0.707 z m 2.4053,4.802 v 1 h -2.0002 v -1 z m -12.00147,0 v 1 H 0.992382 v -1 z m 0.40405,-4.802 1.41318,1.414 -0.70709,0.707 -1.41317,-1.414 z m 8.48502,8.48402 1.4142,1.414 -0.7071,0.707 -1.4141,-1.414 z m -7.77793,0 0.70709,0.707 -1.41418,1.414 -0.70708,-0.707 z"
       fill="#ffffff"
       id="path4" />
  </g>
  <defs
     id="defs4">
    <clipPath
       id="clip0_132_2">
      <rect
         width="16"
         height="16"
         fill="white"
         id="rect4" />
    </clipPath>
  </defs>
</svg>
